<svg height="452pt" viewBox="0 -15 452.00101 452" width="452pt" xmlns="http://www.w3.org/2000/svg"><path d="m316.878906 65.625c23.25-12.671875 51.945313-9.425781 71.773438 8.121094s26.539062 45.632812 16.789062 70.25c17.214844 4.988281 29.820313 19.722656 32.089844 37.503906 2.265625 17.777344-6.238281 35.207031-21.652344 44.355469 21.304688 13.003906 32.902344 37.375 29.554688 62.105469-3.351563 24.734374-21.007813 45.144531-45.003906 52.015624v22.828126c.003906 17.78125-10 34.054687-25.867188 42.078124-15.867188 8.023438-34.902344 6.4375-49.222656-4.105468-13.09375 14.425781-33.710938 19.3125-51.886719 12.296875-18.175781-7.019531-30.164063-24.496094-30.164063-43.980469v-67.929688h54.710938c9.941406 0 18-8.058593 18-18v-144c0-9.941406-8.058594-18-18-18h-54.710938v-75.789062c.011719-16.484375 10.3125-31.207031 25.792969-36.871094 15.484375-5.660156 32.851563-1.054687 43.496094 11.535156 10.640625 12.589844 12.292969 30.484376 4.132813 44.804688zm0 0" fill="#e48e66"/><path d="m208.710938 301.164062h-54.710938c-9.941406 0-18-8.058593-18-18v-144c0-9.941406 8.058594-18 18-18h144c9.941406 0 18 8.058594 18 18v144c0 9.941407-8.058594 18-18 18zm82.289062-25v-130h-130v130zm0 0" fill="#f8ec7d"/><path d="m161 146.164062h130v130h-130zm0 0" fill="#6fe3ff"/><path d="m46.558594 143.996094c-9.664063-24.40625-3.148438-52.25 16.339844-69.839844 19.488281-17.585938 47.851562-21.21875 71.140624-9.109375l1.25-.203125c-8.167968-14.324219-6.519531-32.222656 4.125-44.820312 10.644532-12.59375 28.019532-17.199219 43.503907-11.535157 15.488281 5.664063 25.789062 20.398438 25.792969 36.886719v75.789062h-54.710938c-9.941406 0-18 8.058594-18 18v144c0 9.941407 8.058594 18 18 18h54.710938v67.929688c0 19.484375-11.984376 36.960938-30.160157 43.980469-18.175781 7.015625-38.796875 2.128906-51.890625-12.296875-14.320312 10.542968-33.351562 12.128906-49.222656 4.105468-15.867188-8.023437-25.871094-24.296874-25.867188-42.078124v-22.828126c-23.992187-6.871093-41.652343-27.28125-45-52.015624-3.351562-24.730469 8.246094-49.101563 29.550782-62.105469-15.414063-9.148438-23.917969-26.578125-21.652344-44.355469 2.269531-17.78125 14.875-32.515625 32.089844-37.503906zm0 0" fill="#e48e66"/><g fill="#63316d"><path d="m0 279.527344c.09375 29.019531 18.292969 54.894531 45.570312 64.796875v18.480469c-.003906 19.117187 10.257813 36.761718 26.875 46.210937 16.621094 9.445313 37.03125 9.238281 53.457032-.542969 15.570312 14.113282 38 17.71875 57.210937 9.199219 19.214844-8.515625 31.601563-27.558594 31.597657-48.578125v-61.929688h22.578124v61.929688c0 21.019531 12.382813 40.0625 31.597657 48.578125 19.210937 8.519531 41.640625 4.914063 57.214843-9.199219 16.421876 9.78125 36.835938 9.988282 53.453126.542969 16.617187-9.449219 26.882812-27.09375 26.875-46.210937v-18.476563c27.277343-9.90625 45.476562-35.78125 45.570312-64.800781.082031-20.917969-9.417969-40.71875-25.785156-53.742188 12.066406-10.414062 18.570312-25.871094 17.574218-41.777344-.992187-15.90625-9.371093-30.433593-22.640624-39.261718-2.570313-1.703125-5.285157-3.167969-8.113282-4.386719 7.199219-24.320313.445313-50.628906-17.578125-68.472656-18.023437-17.847657-44.398437-24.339844-68.648437-16.902344 3.683594-16.941406-2.632813-34.496094-16.261719-45.207031-13.628906-10.714844-32.179687-12.707032-47.769531-5.128906-15.59375 7.578124-25.488282 23.390624-25.488282 40.726562v69.789062h-22.578124v-69.789062c.035156-17.359375-9.855469-33.207031-25.464844-40.804688-15.605469-7.597656-34.183594-5.605468-47.824219 5.128907s-19.945313 28.320312-16.230469 45.277343c-24.25-7.429687-50.621094-.929687-68.640625 16.917969-18.019531 17.84375-24.777343 44.152344-17.585937 68.472657-13.894532 5.957031-24.425782 17.777343-28.746094 32.269531-4.316406 14.488281-1.976562 30.148437 6.394531 42.742187 2.566407 3.875 5.652344 7.378906 9.171875 10.410156-16.363281 13.023438-25.863281 32.824219-25.785156 53.738282zm154 15.636718c-6.625-.003906-11.992188-5.375-12-12v-144c.007812-6.621093 5.375-11.992187 12-12h144c6.625.007813 11.992188 5.378907 12 12v144c-.007812 6.625-5.375 11.996094-12 12zm95.289062-249.789062c.007813-13.953125 8.71875-26.421875 21.820313-31.230469 13.097656-4.804687 27.808594-.933593 36.839844 9.707031 9.03125 10.636719 10.46875 25.777344 3.601562 37.925782-1.847656 1.109375-3.664062 2.3125-5.417969 3.605468-2.667968 1.964844-3.238281 5.722657-1.273437 8.390626 1.964844 2.667968 5.722656 3.238281 8.390625 1.273437 17.269531-12.730469 40.230469-14.65625 59.378906-4.984375 19.148438 9.667969 31.222656 29.292969 31.230469 50.742188.011719 7.1875-1.34375 14.308593-4 20.984374-1.011719 2.566407-2.21875 5.054688-3.605469 7.4375-1.667968 2.867188-.695312 6.539063 2.167969 8.207032 2.863281 1.664062 6.539063.695312 8.203125-2.167969.707031-1.214844 1.367188-2.460937 2-3.722656 2.050781.898437 4.019531 1.96875 5.886719 3.199219 10.660156 7.082031 17.15625 18.945312 17.386719 31.738281.230468 12.792969-5.839844 24.882812-16.238282 32.34375-10-5.363281-21.171875-8.164063-32.519531-8.160157-3.3125 0-6 2.6875-6 6 0 3.316407 2.6875 6 6 6 28.351563.007813 52.367187 20.894532 56.304687 48.96875 3.941407 28.074219-13.402343 54.765626-40.65625 62.570313-5.089843 1.445313-10.355468 2.175781-15.648437 2.171875-3.3125 0-6 2.6875-6 6s2.6875 6 6 6c3.78125 0 7.558594-.3125 11.289063-.929688v15.359376c0 22.726562-18.421876 41.144531-41.144532 41.144531s-41.144531-18.417969-41.144531-41.144531c0-3.3125-2.6875-6-6-6s-6 2.6875-6 6c.035156 14.40625 5.890625 28.183593 16.238281 38.207031-12.316406 10.015625-29.292968 12.054687-43.625 5.234375-14.335937-6.820313-23.464844-21.277344-23.464844-37.152344v-61.929688h48.710938c13.25-.015624 23.984375-10.75 24-24v-144c-.015625-13.246093-10.75-23.984374-24-24h-48.710938zm-211.800781 109.371094c1.867188-1.230469 3.839844-2.300782 5.890625-3.199219.628906 1.261719 1.289063 2.507813 2 3.71875 1.664063 2.863281 5.339844 3.835937 8.203125 2.167969 2.863281-1.664063 3.835938-5.339844 2.167969-8.203125-1.390625-2.386719-2.59375-4.878907-3.609375-7.449219-8.738281-22.074219-2.847656-47.253906 14.773437-63.164062 17.625-15.90625 43.273438-19.199219 64.34375-8.253907 2.613282 1.367188 5.117188 2.929688 7.488282 4.679688 2.664062 1.972656 6.421875 1.40625 8.390625-1.257813 1.972656-2.664062 1.410156-6.421875-1.257813-8.390625-1.722656-1.277343-3.542968-2.476562-5.417968-3.601562-6.882813-12.144531-5.453126-27.296875 3.574218-37.941407 9.03125-10.648437 23.746094-14.527343 36.851563-9.71875 13.105469 4.808594 21.820312 17.28125 21.824219 31.242188v69.789062h-48.710938c-13.246094.015626-23.984375 10.753907-24 24v144c.015625 13.25 10.753906 23.984376 24 24h48.710938v61.929688c.003906 15.875-9.128907 30.332031-23.464844 37.152344-14.332032 6.820312-31.3125 4.78125-43.625-5.234375 10.347656-10.023438 16.203125-23.800781 16.238281-38.207031 0-3.3125-2.683594-6-6-6-3.3125 0-6 2.6875-6 6-.027344 13.078124-6.242187 25.371093-16.757813 33.144531-12.5 9.199219-29.109374 10.582031-42.957031 3.578125-13.847656-7.003906-22.578125-21.203125-22.574219-36.722656v-15.359376c3.730469.617188 7.507813.929688 11.289063.929688 3.316406 0 6-2.6875 6-6s-2.683594-6-6-6c-15.085937.027344-29.5625-5.953125-40.230469-16.621094-10.667968-10.667968-16.652344-25.140625-16.628906-40.226562-.011719-31.410156 25.453125-56.875 56.859375-56.863282 3.316406 0 6-2.683593 6-6 0-3.3125-2.683594-6-6-6-11.34375-.003906-22.515625 2.800782-32.515625 8.160157-10.398438-7.457031-16.46875-19.546875-16.238281-32.339844.226562-12.792969 6.726562-24.65625 17.382812-31.738281zm0 0"/><path d="m178.261719 104.675781c3.3125 0 6-2.6875 6-6v-17.511719c0-3.3125-2.6875-6-6-6-3.316407 0-6 2.6875-6 6v17.511719c0 3.3125 2.683593 6 6 6zm0 0"/><path d="m273.742188 75.164062c-3.316407 0-6 2.6875-6 6v17.511719c0 3.3125 2.683593 6 6 6 3.3125 0 6-2.6875 6-6v-17.511719c0-3.3125-2.6875-6-6-6zm0 0"/><path d="m178.261719 347.164062c3.3125 0 6-2.683593 6-6v-17.507812c0-3.3125-2.6875-6-6-6-3.316407 0-6 2.6875-6 6v17.507812c0 3.316407 2.683593 6 6 6zm0 0"/><path d="m273.742188 317.65625c-3.316407 0-6 2.6875-6 6v17.507812c0 3.316407 2.683593 6 6 6 3.3125 0 6-2.683593 6-6v-17.507812c0-3.3125-2.6875-6-6-6zm0 0"/><path d="m338.492188 169.425781h17.507812c3.3125 0 6-2.6875 6-6s-2.6875-6-6-6h-17.507812c-3.316407 0-6 2.6875-6 6s2.683593 6 6 6zm0 0"/><path d="m338.492188 264.90625h17.507812c3.3125 0 6-2.6875 6-6s-2.6875-6-6-6h-17.507812c-3.316407 0-6 2.6875-6 6s2.683593 6 6 6zm0 0"/><path d="m96 169.425781h17.511719c3.3125 0 6-2.6875 6-6s-2.6875-6-6-6h-17.511719c-3.3125 0-6 2.6875-6 6s2.6875 6 6 6zm0 0"/><path d="m96 264.90625h17.511719c3.3125 0 6-2.6875 6-6s-2.6875-6-6-6h-17.511719c-3.3125 0-6 2.6875-6 6s2.6875 6 6 6zm0 0"/><path d="m291 140.164062h-130c-3.3125 0-6 2.6875-6 6v130c0 3.316407 2.6875 6 6 6h130c3.3125 0 6-2.683593 6-6v-130c0-3.3125-2.6875-6-6-6zm-6 130h-118v-118h118zm0 0"/></g></svg>