<svg height="512pt" viewBox="0 0 512 512.001" width="512pt" xmlns="http://www.w3.org/2000/svg"><path d="m383.378906 434.617188h-.007812c.007812-.011719.015625-.023438.023437-.035157.863281-1.828125 1.84375-3.585937 2.929688-5.273437 10.800781-22.125 2.058593-42.304688 2.058593-42.304688s17.003907 1.839844 24.589844 22.375c-2.988281-10.71875 8.964844-36.164062 30.109375-44.4375-5.269531 22.695313 10.183594 42.886719 21.957031 63.167969 1.746094 2.550781 3.25 5.277344 4.476563 8.15625.003906.007813.003906.011719.007813.015625 2.40625 5.667969 3.742187 11.902344 3.742187 18.445312 0 26.0625-21.128906 47.191407-47.191406 47.191407s-47.191407-21.128907-47.191407-47.191407c-.003906-7.191406 1.617188-14.007812 4.496094-20.109374zm0 0" fill="#ffd89e"/><path d="m43.152344 434.617188h-.007813c.007813-.011719.015625-.023438.023438-.035157.863281-1.828125 1.84375-3.585937 2.925781-5.273437 10.800781-22.125 2.058594-42.304688 2.058594-42.304688s17.007812 1.839844 24.59375 22.375c-2.988282-10.71875 8.960937-36.164062 30.105468-44.4375-5.265624 22.695313 10.1875 42.886719 21.960938 63.167969 1.746094 2.550781 3.25 5.277344 4.476562 8.15625 0 .007813.003907.011719.007813.015625h-.003906c2.410156 5.667969 3.746093 11.902344 3.746093 18.445312 0 26.0625-21.128906 47.191407-47.191406 47.191407-26.066406 0-47.191406-21.128907-47.191406-47.191407 0-7.191406 1.613281-14.007812 4.496094-20.109374zm0 0" fill="#ffd89e"/><path d="m184.820312 430.863281c0 39.289063 31.851563 71.140625 71.136719 71.140625 39.289063 0 71.140625-31.851562 71.140625-71.140625 0-23.203125-5.230468-41.632812-18.121094-62.746093-2.742187-4.488282-9.597656-2.9375-10.101562 2.300781-2.148438 22.34375-15.855469 36.917969-15.855469 36.917969s17.308594-50.691407-30.007812-74.378907c-.84375-.421875-1.765625.417969-1.433594 1.300781 5.402344 14.480469 3.65625 26.613282-9.203125 37.285157-18.882812 15.675781-19.542969 40.859375-19.542969 40.859375s3.808594-23.492188-11.875-45.789063c-2.914062-4.144531-9.410156-2.335937-9.867187 2.710938-2.925782 32.421875-16.269532 35.691406-16.269532 61.539062zm0 0" fill="#ffc15a"/><path d="m275.957031 127.980469h-39.996093v-40.871094h39.996093zm0 0" fill="#79b2ff"/><path d="m10 10h491.921875v40.054688h-213.96875v37.054687h-63.988281v-37.054687h-213.964844zm0 0" fill="#cee3ff"/><path d="m501.921875 40.054688c-2.632813 0-5.210937 1.070312-7.070313 2.929687-1.859374 1.859375-2.929687 4.4375-2.929687 7.070313 0 2.628906 1.070313 5.207031 2.929687 7.066406 1.859376 1.859375 4.4375 2.929687 7.070313 2.929687 2.628906 0 5.207031-1.066406 7.066406-2.929687 1.859375-1.859375 2.929688-4.4375 2.929688-7.066406 0-2.632813-1.070313-5.210938-2.929688-7.070313s-4.4375-2.929687-7.066406-2.929687zm0 0"/><path d="m213.964844 87.109375c0 5.523437 4.476562 10 10 10h2v30.871094c0 5.519531 4.476562 9.996093 9.996094 9.996093h10v8.9375c0 5.523438 4.476562 10 10 10 5.519531 0 9.996093-4.476562 9.996093-10v-8.9375h10c5.519531 0 9.996094-4.476562 9.996094-9.996093v-30.871094h2c5.523437 0 10-4.476563 10-10v-27.054687h158.972656c5.523438 0 10-4.480469 10-10 0-5.519532-4.476562-10-10-10h-168.972656c-5.519531 0-9.996094 4.480468-9.996094 10v27.058593h-43.992187v-27.058593c0-5.519532-4.476563-10-10-10h-213.964844c-5.523438 0-10 4.480468-10 10 0 5.519531 4.476562 10 10 10h203.964844zm51.992187 10v20.871094h-19.996093v-20.871094zm0 0"/><path d="m10 19.996094h491.921875c5.519531 0 9.996094-4.476563 9.996094-9.996094 0-5.523438-4.476563-10-9.996094-10h-491.921875c-5.523438 0-10 4.476562-10 10 0 5.519531 4.476562 9.996094 10 9.996094zm0 0"/><path d="m336.632812 153.914062c2.761719-4.78125 1.125-10.898437-3.660156-13.660156l-3.460937-2c-4.78125-2.757812-10.898438-1.121094-13.660157 3.660156-2.757812 4.785157-1.121093 10.898438 3.660157 13.660157l3.464843 2c1.574219.90625 3.292969 1.339843 4.988282 1.339843 3.457031 0 6.816406-1.792968 8.667968-5zm0 0"/><path d="m417.160156 188.859375c-4.78125-2.761719-10.894531-1.121094-13.660156 3.660156-2.757812 4.78125-1.121094 10.894531 3.660156 13.65625l6.875 3.96875c1.574219.910157 3.292969 1.34375 4.988282 1.34375 3.457031 0 6.816406-1.792969 8.667968-5.003906 2.761719-4.78125 1.125-10.894531-3.660156-13.65625zm0 0"/><path d="m371.632812 162.574219c-4.785156-2.761719-10.898437-1.125-13.660156 3.660156-2.761718 4.78125-1.125 10.894531 3.660156 13.65625l6.871094 3.96875c1.574219.910156 3.292969 1.34375 4.992188 1.34375 3.453125 0 6.816406-1.796875 8.667968-5.003906 2.761719-4.78125 1.121094-10.894531-3.660156-13.65625zm0 0"/><path d="m462.691406 215.148438c-4.785156-2.761719-10.898437-1.125-13.660156 3.65625s-1.121094 10.898437 3.660156 13.660156l3.464844 2c1.574219.90625 3.292969 1.339844 4.988281 1.339844 3.457031 0 6.816407-1.792969 8.667969-5 2.761719-4.78125 1.121094-10.898438-3.660156-13.660157zm0 0"/><path d="m211.617188 184.140625c1.574218.910156 3.292968 1.339844 4.988281 1.339844 3.457031 0 6.816406-1.792969 8.667969-5l2-3.460938c2.761718-4.78125 1.121093-10.898437-3.660157-13.660156-4.78125-2.757813-10.894531-1.121094-13.660156 3.660156l-1.996094 3.464844c-2.761719 4.78125-1.125 10.894531 3.660157 13.65625zm0 0"/><path d="m179.203125 260.277344 3.476563-6.023438c2.761718-4.78125 1.125-10.894531-3.660157-13.65625-4.78125-2.761718-10.894531-1.121094-13.65625 3.660156l-3.476562 6.019532c-2.761719 4.785156-1.125 10.898437 3.660156 13.660156 1.574219.90625 3.292969 1.339844 4.988281 1.339844 3.457032 0 6.816406-1.792969 8.667969-5zm0 0"/><path d="m188.582031 224.039062c1.574219.910157 3.292969 1.34375 4.988281 1.34375 3.457032 0 6.816407-1.796874 8.667969-5.003906l3.476563-6.019531c2.761718-4.785156 1.125-10.898437-3.660156-13.660156-4.78125-2.761719-10.894532-1.121094-13.65625 3.660156l-3.476563 6.023437c-2.761719 4.78125-1.121094 10.894532 3.660156 13.65625zm0 0"/><path d="m155.984375 280.492188c-4.78125-2.757813-10.898437-1.121094-13.65625 3.664062l-2 3.464844c-2.761719 4.78125-1.121094 10.894531 3.660156 13.65625 1.574219.910156 3.292969 1.339844 4.988281 1.339844 3.457032 0 6.816407-1.792969 8.667969-5l2-3.464844c2.761719-4.78125 1.121094-10.898438-3.660156-13.660156zm0 0"/><path d="m301.964844 167.019531c-2.761719-4.78125-8.878906-6.421875-13.660156-3.660156s-6.421876 8.878906-3.660157 13.660156l2 3.460938c1.851563 3.207031 5.210938 5 8.667969 5 1.695312 0 3.417969-.429688 4.988281-1.339844 4.785157-2.761719 6.421875-8.875 3.660157-13.65625zm0 0"/><path d="m350.035156 250.277344-3.480468-6.019532c-2.757813-4.78125-8.875-6.421874-13.65625-3.660156-4.78125 2.761719-6.421876 8.875-3.660157 13.65625l3.476563 6.023438c1.851562 3.207031 5.214844 5 8.667968 5 1.695313 0 3.417969-.433594 4.992188-1.339844 4.78125-2.761719 6.421875-8.875 3.660156-13.660156zm0 0"/><path d="m309.679688 220.378906c1.851562 3.207032 5.214843 5.003906 8.667968 5.003906 1.695313 0 3.417969-.433593 4.992188-1.34375 4.78125-2.761718 6.417968-8.875 3.660156-13.65625l-3.480469-6.023437c-2.761719-4.78125-8.875-6.421875-13.65625-3.660156s-6.421875 8.875-3.660156 13.660156zm0 0"/><path d="m371.59375 287.621094-2-3.464844c-2.761719-4.785156-8.878906-6.417969-13.660156-3.664062-4.78125 2.761718-6.421875 8.878906-3.660156 13.660156l2 3.464844c1.851562 3.207031 5.210937 5 8.667968 5 1.695313 0 3.414063-.429688 4.988282-1.339844 4.78125-2.761719 6.421874-8.875 3.664062-13.65625zm0 0"/><path d="m192.40625 155.574219c4.78125-2.761719 6.421875-8.875 3.660156-13.660157-2.761718-4.78125-8.875-6.421874-13.65625-3.660156l-3.464844 2c-4.78125 2.761719-6.421874 8.878906-3.660156 13.660156 1.851563 3.207032 5.214844 5 8.667969 5 1.695313 0 3.417969-.433593 4.988281-1.339843zm0 0"/><path d="m140.289062 162.574219-6.875 3.96875c-4.78125 2.761719-6.417968 8.875-3.660156 13.65625 1.855469 3.210937 5.214844 5.003906 8.667969 5.003906 1.695313 0 3.417969-.433594 4.992187-1.34375l6.871094-3.96875c4.785156-2.761719 6.421875-8.875 3.660156-13.65625-2.761718-4.785156-8.878906-6.421875-13.65625-3.660156zm0 0"/><path d="m94.757812 188.859375-6.871093 3.96875c-4.785157 2.761719-6.421875 8.875-3.660157 13.65625 1.851563 3.210937 5.210938 5.003906 8.667969 5.003906 1.695313 0 3.414063-.433593 4.988281-1.34375l6.875-3.96875c4.78125-2.761719 6.417969-8.875 3.660157-13.65625-2.761719-4.785156-8.878907-6.421875-13.660157-3.660156zm0 0"/><path d="m49.230469 215.148438-3.464844 1.996093c-4.78125 2.761719-6.421875 8.878907-3.660156 13.660157 1.851562 3.207031 5.210937 5 8.667969 5 1.695312 0 3.417968-.433594 4.988281-1.339844l3.464843-2c4.78125-2.761719 6.421876-8.878906 3.660157-13.660156s-8.875-6.417969-13.65625-3.65625zm0 0"/><path d="m265.957031 186.359375c0-5.519531-4.476562-10-9.996093-10-5.523438 0-10 4.480469-10 10v4c0 5.519531 4.476562 9.996094 10 9.996094 5.519531 0 9.996093-4.476563 9.996093-9.996094zm0 0"/><path d="m265.957031 229.203125c0-5.519531-4.476562-9.996094-9.996093-9.996094-5.523438 0-10 4.476563-10 9.996094v6.90625c0 5.523437 4.476562 10 10 10 5.519531 0 9.996093-4.476563 9.996093-10zm0 0"/><path d="m255.960938 264.957031c-5.523438 0-10 4.476563-10 10v4c0 5.519531 4.476562 9.996094 10 9.996094 5.519531 0 9.996093-4.476563 9.996093-9.996094v-4c0-5.523437-4.476562-10-9.996093-10zm0 0"/><path d="m300.828125 355.878906c-3.585937.824219-6.652344 2.867188-8.785156 5.644532-4.753907-13.359376-14.667969-27.550782-34.554688-37.507813-4.082031-2.042969-8.914062-1.390625-12.3125 1.660156-3.398437 3.054688-4.5625 7.792969-2.964843 12.078125 4.292968 11.5 2.550781 18.816406-6.214844 26.09375-3.738282 3.101563-6.871094 6.5-9.5 10.007813-1.894532-4.28125-4.304688-8.65625-7.355469-12.992188-3.753906-5.339843-10.257813-7.699219-16.574219-6.011719-6.351562 1.699219-10.839844 7.027344-11.429687 13.574219-1.316407 14.535157-4.910157 22.40625-8.386719 30.015625-3.898438 8.527344-7.925781 17.34375-7.925781 32.421875 0 44.742188 36.394531 81.136719 81.136719 81.136719 44.738281 0 81.132812-36.394531 81.132812-81.136719 0-25.144531-5.855469-45.46875-19.585938-67.957031-3.480468-5.699219-10.183593-8.523438-16.679687-7.027344zm-44.867187 136.125c-33.714844 0-61.140626-27.429687-61.140626-61.140625 0-10.726562 2.566407-16.339843 6.117188-24.109375 2.703125-5.917968 5.878906-12.867187 8.0625-22.894531 4.117188 10.304687 4.375 19.636719 4.1875 24.125-.289062 2.390625-.339844 3.898437-.347656 4.15625-.136719 5.257813 3.824218 9.726563 9.0625 10.214844 5.242187.496093 9.960937-3.160157 10.804687-8.351563.039063-.25.269531-1.75.414063-4.210937.832031-6.164063 4-20.890625 15.648437-30.558594 8.953125-7.429687 14.074219-16.082031 15.34375-25.863281 19.0625 20.761718 9.917969 49.320312 9.449219 50.734375-1.523438 4.457031.269531 9.371093 4.304688 11.796875 4.03125 2.429687 9.214843 1.714844 12.4375-1.714844.539062-.574219 11.046874-11.921875 16.132812-30.070312 7.496094 15.089843 10.664062 29.335937 10.664062 46.746093-.003906 33.710938-27.429687 61.140625-61.140624 61.140625zm0 0"/><path d="m478.65625 432.21875c-1.402344-3.28125-3.136719-6.453125-5.152344-9.4375-1.683594-2.894531-3.445312-5.796875-5.148437-8.605469-9.835938-16.203125-19.125-31.507812-15.535157-46.972656.835938-3.613281-.394531-7.394531-3.199218-9.824219-2.808594-2.425781-6.730469-3.101562-10.183594-1.746094-13.96875 5.464844-25.167969 17.394532-31.425781 29.773438-8.988281-7.195312-17.964844-8.277344-18.558594-8.339844-3.539063-.378906-7.027344 1.109375-9.136719 3.976563-2.113281 2.867187-2.554687 6.605469-1.140625 9.871093.273438.660157 6.574219 16.25-1.613281 33.535157-1.144531 1.832031-2.1875 3.71875-3.097656 5.621093-.101563.195313-.195313.398438-.28125.601563-3.519532 7.574219-5.304688 15.667969-5.304688 24.058594 0 31.535156 25.65625 57.1875 57.191406 57.1875 31.535157 0 57.191407-25.652344 57.191407-57.1875 0-7.746094-1.527344-15.269531-4.539063-22.355469-.019531-.050781-.042968-.105469-.066406-.15625zm-52.582031 59.703125c-20.507813 0-37.195313-16.6875-37.195313-37.195313 0-5.535156 1.191406-10.863281 3.542969-15.84375.015625-.035156.03125-.070312.046875-.105468.652344-1.371094 1.417969-2.738282 2.273438-4.070313.207031-.328125.394531-.664062.566406-1.011719 4.359375-8.929687 6.035156-17.59375 6.34375-25.15625.703125 1.289063 1.355468 2.71875 1.941406 4.304688 1.859375 5.03125 7.355469 7.699219 12.457031 6.050781 5.101563-1.648437 7.996094-7.03125 6.554688-12.199219-.917969-3.296874 2.613281-13.96875 10.34375-22.582031 2.699219 14.71875 10.847656 28.140625 18.3125 40.441407 1.714843 2.824218 3.488281 5.746093 5.132812 8.574218.125.214844.253907.425782.394531.628906 1.390626 2.03125 2.574219 4.1875 3.496094 6.351563.011719.027344.023438.058594.035156.085937 1.957032 4.601563 2.949219 9.488282 2.949219 14.535157-.003906 20.507812-16.6875 37.191406-37.195312 37.191406zm0 0"/><path d="m138.433594 432.226562c-1.40625-3.28125-3.136719-6.457031-5.152344-9.445312-1.6875-2.894531-3.449219-5.796875-5.152344-8.601562-9.835937-16.203126-19.125-31.511719-15.535156-46.976563.839844-3.613281-.394531-7.394531-3.199219-9.824219-2.808593-2.425781-6.726562-3.101562-10.183593-1.746094-13.96875 5.464844-25.167969 17.394532-31.425782 29.773438-8.988281-7.195312-17.964844-8.277344-18.554687-8.339844-3.539063-.386718-7.015625 1.144532-9.125 4.007813-2.113281 2.867187-2.539063 6.640625-1.125 9.90625.066406.15625 6.554687 16.152343-1.644531 33.46875-1.144532 1.828125-2.183594 3.714843-3.09375 5.617187-.101563.199219-.195313.398438-.28125.605469-3.519532 7.574219-5.304688 15.667969-5.304688 24.058594 0 31.535156 25.65625 57.1875 57.191406 57.1875 31.53125 0 57.1875-25.652344 57.1875-57.1875 0-7.746094-1.527344-15.269531-4.511718-22.289063-.027344-.074218-.058594-.144531-.089844-.214844zm-52.585938 59.695313c-20.511718 0-37.195312-16.6875-37.195312-37.195313 0-5.535156 1.191406-10.863281 3.539062-15.84375.019532-.035156.035156-.070312.050782-.105468.65625-1.375 1.417968-2.742188 2.269531-4.070313.210937-.324219.398437-.664062.570312-1.011719 4.359375-8.929687 6.035157-17.59375 6.34375-25.15625.703125 1.289063 1.355469 2.71875 1.941407 4.304688 1.859374 5.03125 7.355468 7.699219 12.457031 6.050781 5.101562-1.648437 7.992187-7.03125 6.554687-12.199219-.917968-3.296874 2.613282-13.96875 10.34375-22.582031 2.699219 14.71875 10.847656 28.140625 18.3125 40.441407 1.714844 2.824218 3.488282 5.746093 5.132813 8.574218.121093.214844.253906.425782.394531.628906 1.390625 2.03125 2.578125 4.191407 3.527344 6.421876.007812.019531.015625.039062.023437.058593 1.941407 4.585938 2.925781 9.460938 2.925781 14.492188 0 20.507812-16.683593 37.191406-37.191406 37.191406zm0 0"/></svg>