<svg height="512pt" viewBox="-109 0 512 512" width="512pt" xmlns="http://www.w3.org/2000/svg"><path d="m28.476562 197.242188c-15.703124 0-28.476562 12.773437-28.476562 28.476562v124.566406c0 15.703125 12.773438 28.476563 28.476562 28.476563 15.703126 0 28.476563-12.773438 28.476563-28.476563v-124.570312c0-15.699219-12.777344-28.472656-28.476563-28.472656zm0 0" fill="#cac0c9"/><path d="m28.476562 344.058594c-15.703124 0-28.476562-12.777344-28.476562-28.476563v34.703125c0 15.703125 12.773438 28.476563 28.476562 28.476563 15.703126 0 28.476563-12.773438 28.476563-28.476563v-34.703125c0 15.699219-12.777344 28.476563-28.476563 28.476563zm0 0" fill="#bbb0ba"/><path d="m49.429688 420.671875c-4.152344 0-7.519532-3.367187-7.519532-7.523437v-20.953126c0-7.40625-6.027344-13.433593-13.433594-13.433593s-13.433593 6.027343-13.433593 13.433593v20.953126c0 4.15625-3.367188 7.523437-7.519531 7.523437-4.15625 0-7.523438-3.367187-7.523438-7.523437v-20.953126c0-15.703124 12.773438-28.476562 28.476562-28.476562 15.703126 0 28.476563 12.773438 28.476563 28.476562v20.953126c0 4.15625-3.367187 7.523437-7.523437 7.523437zm0 0" fill="#8c808a"/><path d="m179.039062 170.925781h-63.515624c-4.152344 0-7.519532 3.371094-7.519532 7.523438v26.3125c0 4.15625 3.367188 7.523437 7.519532 7.523437h63.515624c4.15625 0 7.523438-3.367187 7.523438-7.523437v-26.3125c0-4.15625-3.367188-7.523438-7.523438-7.523438zm0 0" fill="#9c8f9a"/><path d="m147.28125 81.546875c-4.152344 0-7.519531-3.367187-7.519531-7.519531v-23.566406c0-4.152344 3.367187-7.519532 7.519531-7.519532 4.15625 0 7.523438 3.367188 7.523438 7.519532v23.566406c0 4.152344-3.367188 7.519531-7.523438 7.519531zm0 0" fill="#8c808a"/><path d="m113.191406 336.535156h-41.910156c-4.152344 0-7.523438 3.367188-7.523438 7.523438v113.035156c0 2.695312 1.445313 5.1875 3.785157 6.527344 2.339843 1.339844 5.21875 1.324218 7.546875-.042969 5.183594-3.042969 11.113281-4.652344 17.144531-4.652344s11.960937 1.609375 17.148437 4.652344c1.175782.691406 2.492188 1.035156 3.808594 1.035156 1.289063 0 2.578125-.332031 3.738282-.992187 2.339843-1.339844 3.78125-3.832032 3.78125-6.527344v-113.035156c0-4.15625-3.367188-7.523438-7.519532-7.523438zm0 0" fill="#cac0c9"/><path d="m223.285156 336.535156h-41.910156c-4.15625 0-7.519531 3.367188-7.519531 7.523438v113.035156c0 2.695312 1.441406 5.1875 3.78125 6.527344 2.339843 1.339844 5.21875 1.324218 7.542969-.042969 5.1875-3.042969 11.117187-4.652344 17.148437-4.652344s11.960937 1.609375 17.148437 4.652344c1.175782.691406 2.492188 1.035156 3.808594 1.035156 1.289063 0 2.578125-.332031 3.738282-.992187 2.339843-1.339844 3.78125-3.832032 3.78125-6.527344v-113.035156c0-4.15625-3.367188-7.523438-7.519532-7.523438zm0 0" fill="#cac0c9"/><path d="m113.191406 336.535156h-41.910156c-4.152344 0-7.523438 3.367188-7.523438 7.523438v27.074218h56.953126v-27.074218c0-4.15625-3.367188-7.523438-7.519532-7.523438zm0 0" fill="#bbb0ba"/><path d="m223.285156 336.535156h-41.910156c-4.15625 0-7.519531 3.367188-7.519531 7.523438v27.074218h56.949219v-27.074218c0-4.15625-3.367188-7.523438-7.519532-7.523438zm0 0" fill="#bbb0ba"/><path d="m232.035156 93.28125c-6.894531 0-13.503906 2.117188-19.113281 6.117188-1.980469 1.414062-3.152344 3.691406-3.152344 6.125v41.429687c0 2.429687 1.171875 4.710937 3.152344 6.125 5.609375 4 12.21875 6.113281 19.113281 6.113281 18.171875 0 32.953125-14.78125 32.953125-32.953125s-14.78125-32.957031-32.953125-32.957031zm0 0" fill="#cac0c9"/><path d="m81.644531 99.398438c-5.609375-4-12.21875-6.117188-19.113281-6.117188-18.171875 0-32.957031 14.785156-32.957031 32.957031s14.785156 32.953125 32.957031 32.953125c6.890625 0 13.5-2.113281 19.113281-6.113281 1.976563-1.414063 3.152344-3.695313 3.152344-6.125v-41.429687c0-2.433594-1.175781-4.714844-3.152344-6.125zm0 0" fill="#cac0c9"/><path d="m232.035156 134.695312c-6.894531 0-13.503906-2.113281-19.113281-6.113281-1.980469-1.414062-3.152344-3.695312-3.152344-6.125v24.496094c0 2.429687 1.171875 4.710937 3.152344 6.125 5.609375 4 12.21875 6.113281 19.113281 6.113281 18.171875 0 32.953125-14.78125 32.953125-32.953125 0-4.328125-.84375-8.460937-2.367187-12.25-4.875 12.121094-16.742188 20.707031-30.585938 20.707031zm0 0" fill="#bbb0ba"/><path d="m81.644531 128.582031c-5.609375 4-12.21875 6.113281-19.113281 6.113281-13.84375 0-25.714844-8.585937-30.585938-20.707031-1.523437 3.789063-2.371093 7.921875-2.371093 12.25 0 18.171875 14.785156 32.953125 32.957031 32.953125 6.890625 0 13.5-2.113281 19.113281-6.113281 1.976563-1.414063 3.152344-3.695313 3.152344-6.125v-24.496094c0 2.429688-1.175781 4.710938-3.152344 6.125zm0 0" fill="#bbb0ba"/><path d="m202.246094 66.503906h-109.929688c-12.441406 0-22.5625 10.125-22.5625 22.566406v74.335938c0 12.441406 10.121094 22.5625 22.5625 22.5625h109.929688c12.441406 0 22.566406-10.121094 22.566406-22.5625v-74.335938c0-12.441406-10.125-22.566406-22.566406-22.566406zm0 0" fill="#e6e2e6"/><path d="m202.246094 157.261719h-109.929688c-12.441406 0-22.5625-10.125-22.5625-22.566407v28.710938c0 12.441406 10.121094 22.5625 22.5625 22.5625h109.929688c12.441406 0 22.566406-10.121094 22.566406-22.5625v-28.710938c0 12.441407-10.125 22.566407-22.566406 22.566407zm0 0" fill="#d8d1d7"/><path d="m114.613281 135.78125c-6.324219 0-11.46875-5.144531-11.46875-11.46875s5.144531-11.464844 11.46875-11.464844c6.320313 0 11.464844 5.140625 11.464844 11.464844s-5.144531 11.46875-11.464844 11.46875zm0 0" fill="#8c808a"/><path d="m179.953125 135.78125c-6.324219 0-11.464844-5.144531-11.464844-11.46875s5.144531-11.464844 11.464844-11.464844c6.324219 0 11.46875 5.140625 11.46875 11.464844s-5.144531 11.46875-11.46875 11.46875zm0 0" fill="#8c808a"/><path d="m147.28125 0c-15.984375 0-28.992188 13.007812-28.992188 28.992188 0 15.984374 13.007813 28.992187 28.992188 28.992187 15.988281 0 28.992188-13.007813 28.992188-28.992187 0-15.984376-13.003907-28.992188-28.992188-28.992188zm0 0" fill="#ff4755"/><path d="m147.28125 35.214844c-11.945312 0-22.226562-7.265625-26.660156-17.609375-1.496094 3.5-2.332032 7.347656-2.332032 11.386719 0 15.984374 13.007813 28.992187 28.992188 28.992187s28.992188-13.007813 28.992188-28.992187c0-4.039063-.832032-7.886719-2.332032-11.386719-4.433594 10.34375-14.710937 17.609375-26.660156 17.609375zm0 0" fill="#fc2b3a"/><path d="m92.234375 443.882812c-27.015625 0-48.996094 21.980469-48.996094 48.996094v11.597656c0 4.15625 3.371094 7.523438 7.523438 7.523438h82.945312c4.15625 0 7.523438-3.367188 7.523438-7.523438v-11.597656c0-27.015625-21.980469-48.996094-48.996094-48.996094zm0 0" fill="#9c8f9a"/><path d="m50.761719 512h82.945312c4.15625 0 7.523438-3.367188 7.523438-7.523438v-11.597656c0-3.816406-.453125-7.523437-1.28125-11.089844h-95.429688c-.828125 3.566407-1.28125 7.273438-1.28125 11.089844v11.597656c0 4.15625 3.371094 7.523438 7.523438 7.523438zm0 0" fill="#8c808a"/><path d="m266.089844 197.242188c15.699218 0 28.476562 12.773437 28.476562 28.476562v124.566406c0 15.703125-12.777344 28.476563-28.476562 28.476563-15.703125 0-28.476563-12.773438-28.476563-28.476563v-124.570312c0-15.699219 12.773438-28.472656 28.476563-28.472656zm0 0" fill="#cac0c9"/><path d="m266.089844 344.058594c15.699218 0 28.476562-12.777344 28.476562-28.476563v34.703125c0 15.703125-12.777344 28.476563-28.476562 28.476563-15.703125 0-28.476563-12.773438-28.476563-28.476563v-34.703125c0 15.699219 12.773438 28.476563 28.476563 28.476563zm0 0" fill="#bbb0ba"/><path d="m245.136719 420.671875c4.152343 0 7.519531-3.367187 7.519531-7.523437v-20.953126c0-7.40625 6.027344-13.433593 13.433594-13.433593s13.433594 6.027343 13.433594 13.433593v20.953126c0 4.15625 3.367187 7.523437 7.519531 7.523437 4.15625 0 7.523437-3.367187 7.523437-7.523437v-20.953126c0-15.703124-12.773437-28.476562-28.476562-28.476562s-28.476563 12.773438-28.476563 28.476562v20.953126c0 4.15625 3.367188 7.523437 7.523438 7.523437zm0 0" fill="#8c808a"/><path d="m245.132812 197.242188h-195.703124c-4.152344 0-7.519532 3.367187-7.519532 7.519531v139.296875c0 4.152344 3.367188 7.519531 7.519532 7.519531h195.703124c4.15625 0 7.523438-3.367187 7.523438-7.519531v-139.296875c0-4.152344-3.367188-7.519531-7.523438-7.519531zm0 0" fill="#e6e2e6"/><path d="m41.910156 316.980469v27.078125c0 4.152344 3.367188 7.519531 7.519532 7.519531h195.703124c4.15625 0 7.523438-3.367187 7.523438-7.519531v-27.078125zm0 0" fill="#d8d1d7"/><path d="m202.332031 443.882812c-27.019531 0-48.996093 21.980469-48.996093 48.996094v11.597656c0 4.15625 3.367187 7.523438 7.519531 7.523438h82.949219c4.15625 0 7.523437-3.367188 7.523437-7.523438v-11.597656c-.003906-27.015625-21.980469-48.996094-48.996094-48.996094zm0 0" fill="#9c8f9a"/><path d="m160.855469 512h82.949219c4.152343 0 7.519531-3.367188 7.519531-7.523438v-11.597656c0-3.816406-.449219-7.523437-1.28125-11.089844h-95.425781c-.832032 3.566407-1.28125 7.273438-1.28125 11.089844v11.597656c0 4.15625 3.367187 7.523438 7.519531 7.523438zm0 0" fill="#8c808a"/></svg>